<svg width="60" height="91" viewBox="0 0 60 91" fill="none" xmlns="http://www.w3.org/2000/svg">
<path d="M22.64 90.6C15.6 90.6 10.2 89.08 6.44 86.04C2.68 83 0.8 78.68 0.8 73.08C0.8 68.04 2.24 64 5.12 60.96C8 57.84 11.76 56.28 16.4 56.28C21.28 56.28 24.12 58.32 24.92 62.4C21.64 62.8 19 64 17 66C15.08 67.92 14.12 70.44 14.12 73.56C14.12 76.36 14.96 78.56 16.64 80.16C18.32 81.76 20.56 82.56 23.36 82.56C28 82.56 31.8 80.48 34.76 76.32C37.72 72.16 39.2 66.84 39.2 60.36C39.2 54.84 38.04 50.6 35.72 47.64C33.4 44.6 30.16 43.08 26 43.08C21.76 43.08 16.52 44.88 10.28 48.48L8.72 47.4L17.96 1.92C27 2.96 33.72 3.48 38.12 3.48C45.4 3.48 52.36 2.36 59 0.119998C59.16 1.87999 59.24 3.19999 59.24 4.08C59.24 8.24 58.12 11.6 55.88 14.16C53.72 16.72 50.24 18 45.44 18C43.6 18 41.4 17.8 38.84 17.4C36.28 17 33.84 16.56 31.52 16.08C29.52 15.68 27.48 15.32 25.4 15L20.6 36.72C25.8 34.24 30.76 33 35.48 33C42.04 33 47.2 35.24 50.96 39.72C54.8 44.12 56.72 50.12 56.72 57.72C56.72 64.2 55.28 69.92 52.4 74.88C49.6 79.84 45.6 83.72 40.4 86.52C35.28 89.24 29.36 90.6 22.64 90.6Z" fill="#A300A3"/>
</svg>
